<svg xmlns="http://www.w3.org/2000/svg">
	<symbol id="arrow-down" viewBox="0 0 11 6">
		<path d="M5.03869 5.8407L0.160196 0.940251C-0.0533989 0.725223 -0.0533989 0.376843 0.160197 0.161271C0.373792 -0.0537571 0.720727 -0.053757 0.934322 0.161271L5.42573 4.67302L9.91713 0.161815C10.1307 -0.0532136 10.4777 -0.0532136 10.6918 0.161815C10.9054 0.376843 10.9054 0.725766 10.6918 0.940795L5.81331 5.84124C5.60192 6.05301 5.24953 6.05301 5.03869 5.8407Z" fill="currentColor" />
	</symbol>
	<symbol id="loader" viewBox="0 0 512 512">
		<path d="M304 48c0 26.51-21.49 48-48 48s-48-21.49-48-48 21.49-48 48-48 48 21.49 48 48zm-48 368c-26.51 0-48 21.49-48 48s21.49 48 48 48 48-21.49 48-48-21.49-48-48-48zm208-208c-26.51 0-48 21.49-48 48s21.49 48 48 48 48-21.49 48-48-21.49-48-48-48zM96 256c0-26.51-21.49-48-48-48S0 229.49 0 256s21.49 48 48 48 48-21.49 48-48zm12.922 99.078c-26.51 0-48 21.49-48 48s21.49 48 48 48 48-21.49 48-48c0-26.509-21.491-48-48-48zm294.156 0c-26.51 0-48 21.49-48 48s21.49 48 48 48 48-21.49 48-48c0-26.509-21.49-48-48-48zM108.922 60.922c-26.51 0-48 21.49-48 48s21.49 48 48 48 48-21.49 48-48-21.491-48-48-48z" fill="currentColor" />
	</symbol>
</svg>
